<?xml version="1.0" encoding="utf-8"?>
<!-- Generator: Adobe Illustrator 26.5.0, SVG Export Plug-In . SVG Version: 6.00 Build 0)  -->
<svg version="1.1" id="Capa_1" xmlns="http://www.w3.org/2000/svg" xmlns:xlink="http://www.w3.org/1999/xlink" x="0px" y="0px"
	 viewBox="0 0 200.6 45.4" style="enable-background:new 0 0 200.6 45.4;" xml:space="preserve">
<style type="text/css">
	.st0{fill:#D72012;}
</style>
<path class="st0" d="M128.7,34.6c-0.5,0.2-1,0.1-1.4-0.3c-0.1-0.1-0.3-0.1-0.5-0.2c-0.5,0-0.7-0.2-0.8-0.7c-0.1-0.6-0.5-1.1-0.9-1.6
	c-0.3-0.3-0.7-0.5-0.7-1.1c0-0.1-0.1-0.3-0.2-0.3c-0.7-0.5-1.1-1.1-0.9-2.1c0-0.1,0-0.3-0.2-0.3c-0.1,0-0.2,0.2-0.2,0.3
	c0,0.4-0.4,0.5-0.6,0.5c-0.3,0.1-0.4-0.2-0.5-0.4c-0.1-0.1-0.2-0.5-0.3-0.3c-0.2,0.2-0.7,0.4-0.4,0.7c0.4,0.5,0.2,1,0.1,1.4
	c0,0.4-0.2,0.9-0.4,1.3c-0.4,0.9-0.3,1.8-0.4,2.7c-0.1,1.1,0.1,2.2-0.3,3.2c-0.3,0.8-0.5,1.5-0.7,2.3c-0.1,0.5-0.5,0.9-0.6,1.5
	c0,0.2-0.5,0.4-0.8,0.2c-0.3-0.2-0.6-0.2-0.9-0.3c-0.3-0.1-0.5-0.1-0.6,0.2c-0.2,0.3-0.3,0.3-0.7,0.1c-0.8-0.5-0.9-1.3-1-2.2
	c-0.1-0.5-0.1-1.1-0.3-1.6c-0.1-0.2-0.1-0.4,0-0.6c0.2-0.2,0.2,0,0.4,0.1c0.2,0.1,0.3-0.1,0.4-0.2c0.6-1.2,1-2.5,0.3-3.9
	c-0.3-0.6,0-1.2,0.2-1.8c0,0,0.1-0.1,0.1-0.1c0.1-0.9,0.5-1.6,1.1-2.3c0.1-0.1,0.2-0.5,0-0.7c-0.7-0.5-0.1-0.6,0.2-0.9
	c0.6-0.5,0.3-1.2,0.1-1.8c-0.1-0.5-0.5-1,0-1.5c0.2-0.2-0.1-0.4-0.3-0.6c-0.2-0.1-0.4-0.3-0.4-0.5c0.1-0.3,0.2-0.5,0.5-0.6
	c0.2-0.1,0.5,0,0.4-0.3c-0.1-0.2-0.1-0.5-0.5-0.5c-0.1,0-0.1,0-0.2-0.1c0.1-0.4,0.4-0.4,0.6-0.7c0.2-0.2,0.4-0.3,0.6,0
	c0.3,0.3,0.6,0.3,0.9,0c0.5-0.4,0.8-0.3,1.1,0.2c0.4,0.6,0.6,0.6,1-0.1c0.2-0.4,1.2-0.5,1.4-0.1c0.2,0.3,0.4,0.5,0.7,0.7
	c0.1,0.1,0.2,0.1,0.2,0.2c0.2,0.8,1.1,1.3,1.3,2.1c0.1,0.5,0.4,0.8,0.9,0.8c0.4,0.1,0.7,0.2,0.6,0.7c-0.1,0.4,0.1,0.5,0.5,0.6
	c0.8,0.3,1.4,0.7,2,1.5c0.6,0.7,0.8,1.7,1.8,2.1c0.5,0.2,0.8,0.8,0.8,1.4c0,0.6,0.2,0.4,0.5,0.2c0.6-0.4,0.9-0.8,0.6-1.5
	c-0.1-0.4-0.1-0.7,0.4-0.9c0.6-0.2,0.6-0.6,0.2-1c-0.5-0.5-0.5-0.9,0-1.5c0.1-0.1,0.1-0.2,0-0.3c-0.1-0.2,0-0.3,0.1-0.5
	c0.5-0.7,0.5-1,0-1.7c-0.3-0.4,0-1.1,0.5-1.3c0.2-0.1,0.4-0.1,0.5-0.3c0.1-0.2,0.2-0.5,0-0.7c-0.3-0.3-0.2,0.3-0.5,0.2
	c-0.1-0.2-0.1-0.5-0.2-0.8c-0.1-0.3,0-0.6,0.4-0.5c0.3,0,0.5-0.2,0.3-0.4c-0.6-0.7-0.2-1.5-0.3-2.2c-0.1-0.5,0.1-1.1,0.4-1.6
	c0.2-0.2,0.3-0.5,0.6-0.5c0.4,0,0.4,0.3,0.5,0.6c0,0.1,0.1,0.2,0.2,0.3c0.2-0.2,0.2-0.4,0.2-0.7c0-0.3,0.1-0.6,0.4-0.7
	c0.3-0.1,0.5,0.1,0.7,0.3c0.1,0.1,0.2,0.3,0.2,0.4c0.1,0.1,0.1,0.2,0.3,0.2c0.2,0,0.2-0.2,0.2-0.3c-0.1-0.6,0.3-0.8,0.8-0.7
	c0.4,0,0.5-0.4,0.8-0.3c0.1-0.1,0.1,0,0.1,0c0,0.5,0,1.1,0.8,0.8c0.2-0.1,0.3,0,0.4,0.2c0.1,0.2,0,0.3-0.1,0.4
	c-0.3,0.4-0.5,0.7-0.2,1.3c0.2,0.4-0.1,1,0,1.5c0,0.2-0.2,0.3-0.4,0.4c-0.2,0.1-0.5,0.3-0.3,0.6c0.3,0.5,0,0.9-0.3,1.2
	c-0.2,0.2-0.2,0.3,0.1,0.4c0.1,0,0.2,0.1,0.2,0.2c-0.1,0.5,0,1.1-0.2,1.5c-0.1,0.4-0.2,0.6,0.2,0.8c0.2,0.1,0.3,0.4,0.2,0.7
	c-0.1,0.2-0.2,0.4-0.1,0.7c0.1,0.3,0.1,0.6-0.4,0.4c-0.2-0.1-0.2,0.1-0.2,0.3c0.1,0.2,0.1,0.5,0.2,0.7c0.2,0.5,0.2,0.9-0.1,1.4
	c-0.2,0-0.3-0.2-0.4-0.3c-0.2-0.2-0.4-0.5-0.7-0.3c-0.3,0.2-0.1,0.5,0,0.8c0.2,0.3,0.4,0.5,0.6,0.8c0.2,0.3,0.3,0.6,0,0.9
	c-0.4,0.4,0,1-0.1,1.5c-0.1,0.3,0,0.7-0.4,0.8c-0.4,0.2-0.3,0.6-0.5,0.9c0,0,0,0.2,0.1,0.2c0.6,0,0.3,0.4,0.3,0.7
	c0.1,1-0.2,1.9-0.1,2.9c0,0.4,0,0.7-0.2,1c-0.1,0.2-0.1,0.5-0.1,0.8c0.3,1.4-0.4,2.5-1.7,2.9c-0.3,0.1-0.4-0.1-0.5-0.3
	c-0.2-0.4-0.4-0.7-0.9-0.8c0.1,0.8,0.2,1.6-0.2,2.4c-0.1,0.2-0.2,0.5-0.5,0.3c-0.3-0.2-0.3-0.5-0.1-0.7c0.1-0.1,0.2-0.2,0.2-0.2
	c0.1-0.1,0.2-0.2,0.1-0.3c-0.1-0.1-0.2-0.1-0.3,0c-0.5,0-0.9-0.1-0.8-0.8c0-0.2,0-0.3-0.2-0.3c-0.1,0-0.2,0.2-0.2,0.3
	c0,0.5,0,0.6-0.6,0.3c-1.1-0.5-1.4-1.5-1.9-2.4c-0.2-0.3-0.1-0.6-0.1-0.9c0.1-0.5,0.1-0.9-0.6-1.1c-0.6-0.2-1.2-0.6-1.2-1.4
	c0-0.4-0.1-0.8,0.5-0.8c0.1,0,0.2,0.3,0.2,0C128.9,34.9,129.1,34.6,128.7,34.6z"/>
<path class="st0" d="M66.6,24.1c0.2,0.5,0.2,1.1,0.5,1.6c0.3,0.4-0.4,0.3-0.6,0.6c0.7,0.2,0.1,1,0.5,1.4c0.8-0.6,1.4-1.6,2.3-2.1
	c0.4-0.3,1-0.4,1.2-1c0,0,0.1-0.1,0.2-0.1c0.7,0.5,0.7-0.2,0.8-0.5c0.1-0.4,0.4-0.6,0.8-0.6c0.1,0,0.1-0.1,0.1-0.2
	c0.1-0.7,0.3-1.2,0.9-1.6c0.7-0.6,1.2-1.2,1.8-1.9c0.1-0.1,0.2-0.2,0.4-0.2c0.3,0.1,0.6,0.1,1,0.1c0.3,0,0.5,0.1,0.4,0.4
	c-0.1,0.3,0,0.5,0.3,0.5c0.4,0,0.4-0.3,0.3-0.6c-0.1-0.7,0-0.8,0.5-0.8c0.3,0,0.4,0.3,0.4,0.5c0.1,0.7,0.7,1.1,1.1,1.6
	c0.4,0.4,0.5,0.9,0.2,1.4c-0.1,0.1-0.2,0.3-0.2,0.5c0,0.4-0.1,0.6-0.5,0.6c-0.5,0-0.6,0.4-0.7,0.8c-0.2,0.6-0.4,1.1-1.2,0.8
	c-0.3-0.1-0.6,0-0.5,0.4c0,0.2,0,0.5-0.2,0.5c-0.6,0.2-0.9,0.9-1.5,1c-0.4,0.1-0.7,0.4-1,0.6c-0.4,0.3-0.1,0.7-0.1,1
	c0,0.1,0,0.3,0,0.4c-0.3,0-0.6-0.2-0.9-0.3c-0.5-0.1-0.6,0.2-0.7,0.6c-0.1,0.4,0.2,0.6,0.6,0.6c0.2,0,0.4,0,0.7,0
	c0.5-0.1,0.9,0.1,1.2,0.6c0.2,0.4,0.6,0.7,1,1c0.5,0.4,1,0.9,1.4,1.5c0.1,0.1,0.2,0.2,0.2,0.2c0.6-0.4,0.8,0.6,1.4,0.3
	c0,0,0.2,0.1,0.2,0.2c0.2,0.6,0.8,0.7,1.3,0.8c0.2,0.1,0.4,0.1,0.5,0.3c0.5,1,1.5,1.3,2.3,1.9c0.6,0.5,0.7,1,0.3,1.7
	c-0.2,0.3-0.3,0.7-0.1,1c0.2,0.3,0.2,0.5-0.2,0.5c-0.6,0-1.2,0-1.6,0.6c-0.6-0.3-1,0.4-1.6,0.2c-0.3-0.1-0.4,0-0.3,0.3
	c0.1,0.1,0.1,0.3,0,0.3c-0.1,0-0.2,0-0.3-0.1c-0.3-0.2-0.7-0.4-0.6-0.7c0.2-0.9-0.5-1-1.1-1.1c-0.7-0.2-1.2-0.5-1.3-1.3
	C76,38.1,75.8,38,75.5,38l0,0c-0.1-0.4-0.4-0.4-0.7-0.2c-0.4,0.3-0.6,0.2-0.8-0.2c-0.1-0.2,0-0.4-0.3-0.4c-0.6,0.1-0.6-0.3-0.5-0.7
	c0.1-0.5,0.4-1.1-0.2-1.5c-0.2-0.1-0.5,0.1-0.7-0.1c-0.3-0.1-1.6-0.9-1.7-1.1c-0.2-0.3-0.3-0.4-0.7-0.2c-0.3,0.2-1-0.1-1-0.6
	c0-1-0.8-0.6-1.2-0.9c0,0.2,0,0.2,0,0.2c0.4,0.7,0.6,1.5,0.5,2.3c-0.1,0.7,0.3,1.4,0.5,2.1c0.3,0.9,0.3,1.8,0.4,2.7
	c0,0.4,0,0.7-0.5,0.7c-0.2,0-0.2,0.1-0.3,0.2c-0.2,0.5-0.4,0.9-1,0.4c-0.2-0.2-0.3,0-0.4,0.2c-0.1,0.3-0.2,0.7-0.6,0.9
	c-0.1-1.1-0.7-1.6-1.7-1.6c-0.4,0-0.4-0.4-0.4-0.6c-0.3-1.2-0.5-2.4-0.6-3.7c0-0.1,0-0.2,0-0.2c-0.5-0.5-0.5-1.2-0.6-1.9
	C63,33,62.9,32,62.9,31c0-0.8,0-1.5-0.2-2.2c-0.3-1.1-0.2-2.3-0.6-3.4c-0.4-1.2-0.4-2.4-0.7-3.5c-0.2-0.9-0.2-1.9,0.4-2.8
	c0.3-0.4,0.5-0.4,0.9-0.3c0.8,0.4,1.4,1.1,2.2,1.6c0.1,0.1,0.2,0.2,0.2,0.2c0.9-0.1,0.8,0.6,0.9,1.1c0.2,0.5,0.1,1,0.5,1.4
	c0.1,0.1,0.2,0.4,0,0.5c-0.2,0.1-0.4,0-0.6,0C66.3,23.9,66.5,23.9,66.6,24.1z"/>
<path class="st0" d="M186.9,21.8c0.2,0.1,0.3,0.2,0.4,0.2c0.2,0,0.4,0,0.4,0.3c0,0.3-0.2,0.3-0.4,0.4c-0.1,0-0.2,0.1-0.2,0.1
	c0.1,0.4-0.3,0.9,0,1.3c0.5,0.6,0.6,1.5,1.5,1.8c0.3,0.1,0.4,0.6,0.8,0.7c0.3,0.1,0.5,0.4,1,0.3c0.4-0.1,0.7,0.5,0.8,0.9
	c0.1,0.5,0.5,0.7,0.6,1.1c0.1,0.2,0.3,0.1,0.4,0c0.3-0.3,0.5-0.2,0.8,0.1c0.1,0.1,0.2,0.2,0.3,0.2c0.7-0.1,0.8,0.5,0.8,1
	c0,0.4,0.2,0.4,0.4,0.3c0.6-0.3,0.9,0.3,1.2,0.5c0.4,0.3,0.8,0.5,0.5,1.2c-0.3,0.7,0.2,1.1,0.7,1.3c0.5,0.2,0.4,0.7,0.7,1.1
	c0.1,0.2-0.1,0.3-0.3,0.4c-0.4,0.1-0.6,0.4-0.6,0.9c0,0.4,0.3,0.5,0.6,0.6c0.4,0.1,0.2,0.5,0.1,0.7c-0.3,0.4-0.8,0.6-0.8,1.3
	c0,0.2-0.2,0.2-0.4,0.3c-0.8,0.3-1.7,0.6-2.5,0.9c-0.2,0.1-0.3,0.3-0.4,0.5c-0.2,0.3-0.4,0.7-0.9,0.7c-0.4,0-0.4,0.5-0.4,0.8
	c0,0.4,0,0.7-0.3,1c-0.4,0.4-0.6,0.4-0.7-0.2c-0.1-0.3-0.2-0.6-0.4-0.6c-0.4,0.1-0.9,0-1,0.5c-0.1,0.3-0.4,0.5-0.5,0.9
	c0,0.1-0.1,0.2-0.3,0.1c-0.5-0.1-1,0.1-1.4,0.4c-0.2,0.2-0.4,0.1-0.5-0.1c-0.1-0.2-0.1-0.3-0.3-0.4c-0.3,0.2-0.1,0.5-0.2,0.8
	c-0.1,0.3-0.2,0.5-0.5,0.2c-0.8-0.5-1.6-0.9-2.6-0.9c-0.1,0-0.2-0.1-0.2-0.1c0.1-0.6-0.7-0.8-0.6-1.5c0.1-0.5,0-1.1,0.2-1.6
	c0.4-0.9,1.2-0.7,1.9-0.9c0.9-0.3,1.9-0.3,2.9-0.7c0.6-0.2,0.9-0.8,1.2-1.2c0.6-0.8,1.4-1.1,2.1-1.7c0.7-0.6,0.8-1,0.4-1.8
	c-0.1-0.2,0-0.5,0-0.7c-0.1-0.4-0.3-0.9-0.8-0.9c-1.1-0.2-1.5-0.9-1.8-1.8c-0.2-0.5-0.4-0.8-0.9-0.4c-0.5,0.4-0.9,0.1-1.3-0.2
	c-0.2-0.2-0.3-0.4-0.5-0.5c-1.1-0.4-1.4-1.4-1.6-2.5c0-0.1-0.1-0.3-0.1-0.4c-0.1-0.5-0.1-1.1-0.8-0.3c-0.2,0.2-0.5,0.2-0.8-0.1
	c-0.7-0.8-0.8-1.8-0.9-2.8c-0.1-0.6-0.2-1.2-0.2-1.8c0-0.9-0.1-1.7,0.3-2.5c0.2-0.3,0.5-0.6,0.7-0.9c0.5-0.7,0.8-1.5,1.4-2.1
	c0.1-0.2,0.2-0.3,0.5-0.3c1,0.1,1.5-0.3,1.7-1.3c0.1-0.5,0.4-0.8,0.8-1c0.8-0.3,1.7-1,2.7-0.3c0.1,0.1,0.2,0.1,0.3,0
	c1-0.4,1.7-0.3,2.4,0.5c0.3,0.3,0.5,0.6,1,0.6c0.2,0,0.3,0.1,0.3,0.3c0,0.5,0.5,0.4,0.7,0.4c0.5,0,0.2-0.4,0.2-0.6
	c0-0.5,0.2-0.6,0.5-0.3c0.3,0.2,0.7,0.4,0.6,0.7c-0.1,0.5-0.3,1-0.8,1.2c-0.4,0.1-0.7,0.3-0.8,0.7c-0.2,0.4-0.7,0.6-1.1,0.3
	c-0.4-0.3-0.8-0.2-1.1,0.1c-0.4,0.3-0.9,0.5-1.4,0.4c-0.3,0-0.4,0.1-0.6,0.3c-0.3,0.6-0.6,1.1-0.9,1.7c-0.2,0.4-0.3,0.8-0.9,1
	c-0.3,0.1-0.7,0.6-0.5,1.1c0.2,0.6-0.1,0.6-0.4,0.6C187.2,21.6,187.1,21.7,186.9,21.8z"/>
<path class="st0" d="M12.3,25.4c0.1,0.7-0.2,1-0.6,1.3c-0.6,0.5-0.5,0.8,0.1,1.3c0.5,0.5,1.3,0.6,1.6,1.3c0,0.1,0.3,0.2,0.4,0.3
	c0.7,0.4,1.2,0.9,1.7,1.5c0.3,0.4,0.9,0.4,1.3,0.8c0.6,0.6,1.2,1.1,1.7,1.7c0.3,0.3,0.6,0.7,1.1,0.8c0.7,0.1,1.1,0.5,1.4,1.1
	c0.1,0.1,0.1,0.2,0.2,0.1c0.5-0.3,0.5,0,0.5,0.4c0.1,0.5-0.1,1,0.5,1.3c0,0,0.1,0.2,0,0.2c-0.3,0.4-0.7,0.7-0.9,1.2
	c0,0.1-0.2,0-0.2-0.1c-0.2-0.7-0.5-0.3-0.9-0.2c-0.3,0.1-0.7,0.4-0.6-0.3c0-0.2-0.1-0.3-0.3-0.3c-0.2,0-0.3,0-0.5,0.2
	c-0.4,0.4-0.9,0.3-1.1-0.2c-0.1-0.5-0.3-0.9-0.9-0.8c-0.1,0-0.3-0.1-0.3-0.2c0-0.9-1-1.2-1.1-2c0-0.3-0.3-0.2-0.4,0
	c-0.1,0.3-0.4,0.3-0.5,0c-0.1-0.4-0.4-0.4-0.7-0.5c-0.3-0.1-0.7-0.1-0.7-0.6c0-0.3-0.2-0.2-0.4-0.1c-0.5,0.2-0.8,0-0.9-0.5
	c-0.1-0.7-0.6-0.7-1.1-0.7c-0.3,0-0.5,0-0.6-0.3c0-0.2-0.2-0.2-0.3-0.2c-0.5-0.2-1.1-0.3-1.1-1c0-0.1-0.1-0.2-0.2-0.2
	c-0.1,0-0.2,0.2-0.2,0.3c-0.2,1.1,0,2.2-0.5,3.2c0,0.1-0.1,0.2,0,0.2c0.4,0.1,0.2,0.4,0.1,0.6c-0.3,0.6-0.6,1.2,0,1.8
	c0.1,0.1,0.1,0.1,0,0.2c-0.5,0.5-0.2,1.2-0.4,1.8c-0.1,0.4-0.4,0.6-0.8,0.6c-1.3-0.1-1.4-0.2-1.8-1.4c-0.1-0.5-0.2-0.9-0.5-1.3
	c-0.4-0.8-0.1-1.6-0.3-2.4c-0.4-1.6-0.5-3.3-0.5-5c0-1.8-0.4-3.6-0.2-5.4c0-0.3,0-0.6-0.3-0.8c-0.2-0.1-0.2-0.4-0.2-0.7
	c0-0.7,0-1.3,0-2c0.1-1-0.1-2-0.4-3c-0.3-1-0.2-2-0.5-2.9c-0.1-0.3,0.1-0.6,0.4-0.8c0.3-0.2,0.6,0.1,0.7,0.3
	c0.2,0.3,0.3,0.5,0.7,0.4c0.2,0,0.3,0.2,0.4,0.4c0.3,0.4,0.6,0.8,1.1,0.9c0.1,0,0.2,0.1,0.2,0.2c0.8,1.5,1.2,3,0.7,4.6
	c-0.2,0.7,0,1.1,0.7,1.4c0.3,0.1,0.2,0.2,0.1,0.4c-0.5,0.6-0.4,1.2-0.3,1.8c0,0.2,0.1,0.3,0.3,0.4c0.3,0.1,0.1-0.2,0.2-0.3
	c0.8-0.6,1.3-1.6,2.1-2.2c1.3-1,2.1-2.4,3.6-3.2c0.5-0.2,0.7-0.8,1.1-1.3c0.4-0.4,0.8-0.8,1.3-1.1c0.5-0.3,0.8-0.9,1.3-1.2
	c0.8-0.6,1-0.6,1.7,0.1c0.2,0.2,0.5,0.5,0.8,0.6c0.4,0.2,0.5,0.7,0.3,1.1c-0.3,0.6-0.5,1.3-1.2,1.6c-0.2,0.1-0.3,0.3-0.3,0.5
	c-0.1,1.5-1.1,2.6-2.1,3.6c-0.5,0.5-1.2,0.5-1.7,1c0,0,0,0-0.1,0c-1.1-0.4-0.9,0.6-1.2,1.1C13,25.5,12.9,25.9,12.3,25.4z"/>
<path class="st0" d="M97.7,20.7c0.4,0,0.8,0,1.3-0.2c0.5-0.2,0.7,0,0.7,0.5c0,0.4-0.1,0.8,0.4,1c0.1,0.1,0.1,0.2,0.1,0.3
	c-0.1,0.3-0.1,0.5,0,0.8c0.1,0.4,0,0.8-0.2,1.1c-0.3,0.4-0.5,0.9,0,1.4c0.1,0.1,0.1,0.2,0.1,0.2c-0.3,0.6-0.1,1.3-0.2,1.9
	c-0.3,1.1-0.1,2.2,0.1,3.4c0,0.3,0,0.5,0,0.8c-0.2,1.2-0.2,2.4,0.1,3.5c0.3,1.2,0.3,2.2,0.1,3.4c-0.1,0.5-0.2,0.9,0,1.3
	c0.1,0.3,0,0.5-0.3,0.5c-0.4,0-0.2-0.3-0.2-0.4c0-0.4-0.1-0.6-0.5-0.4C98.7,40,98.6,40,98.4,40c-0.2,0-0.5-0.1-0.4,0.4
	c0.1,0.4-0.3,0.4-0.5,0.3c-0.4-0.1-0.6,0-1,0.1c-1,0.2-1.6-0.6-1.5-1.7c0-0.4,0-0.7-0.1-1.1c-0.1-0.3-0.1-0.5,0-0.8
	c0.1-0.2,0.1-0.4-0.1-0.6c-0.7-0.9-0.3-1.9,0-2.9c0.1-0.3,0.1-0.5,0-0.8c-0.2-0.5-0.1-0.9,0.3-1.2c0.3-0.3,0.4-0.6,0.2-1
	c-0.2-0.7-0.1-1.5-0.5-2.2c-0.1-0.2,0.2-0.6,0.4-0.9c0.4-0.5,0.4-0.9,0-1.4c-0.1-0.1-0.2-0.2-0.2-0.3c0.2-0.5-0.2-1.2,0.2-1.7
	c0.2-0.3,0.2-0.6,0.1-1c-0.5-1.4,0.5-2.7,2-2.7C97.5,20.7,97.6,20.7,97.7,20.7z"/>
<path class="st0" d="M43.8,6c0.4-1.1,1-2,2-2.5c0.3-0.2,0.6-0.2,0.4-0.7c-0.2-0.4,0-0.7,0.5-0.8c0.7-0.1,1.4-0.1,2.1,0.2
	c0.2,0.1,0.3,0,0.5-0.1C49.6,1.9,49.9,2,50,2.3c0.3,0.8,0.9,1.4,0.7,2.3c0,0.1,0,0.4-0.1,0.4c-0.7,0.1-0.7,0.9-1.1,1.2
	C48.6,7,47.9,8,46.7,8.5c-0.3,0.1-0.5,0.3-0.6,0.6c-0.2,0.6-0.9,0.7-1.2,1.2c-0.1,0.2-0.5,0.3-0.7,0.1c-0.4-0.3-0.5-0.2-0.6,0.2
	c0,0.1-0.2,0.3-0.3,0.3c-0.2,0-0.2-0.2-0.3-0.4c0-0.1,0-0.2-0.1-0.3c-0.3,0.1-0.3,0.4-0.4,0.6c-0.4,0.8-0.9,0.9-1.7,0.6
	c-0.5-0.2-0.7-0.4-0.7-0.9c0-0.3-0.5-0.4-0.5-0.7c-0.1-0.7,0-1.5,0.1-2.2c0-0.3,0.3-0.4,0.5-0.5c0.3-0.1,0.5-0.1,0.7-0.4
	c0-0.1,0.2-0.2,0.3-0.1c0.5,0.4,0.7-0.1,0.9-0.4c0.5-0.6,0.9-0.5,1.4-0.1C43.7,6,43.7,6,43.8,6z"/>
<path class="st0" d="M106,12.2c0,0.2,0,0.4,0.1,0.6c0.5,0.9,0.1,1.8,0.3,2.7c0,0.3-0.1,0.5-0.4,0.6c-0.5,0.1-1-0.1-1.5-0.1
	c-0.2,0-0.2-0.4-0.1-0.7c0.2-0.8,0.2-0.8-0.6-1c-0.7-0.1-1.1-0.6-1.4-1.1c-0.2-0.3,0.2-0.9,0.6-1.1c0.3-0.1,0.7-0.7,1.1-0.2
	c0.1,0.1,0.2-0.1,0.3-0.2c0.1-0.2,0.3-0.2,0.3,0c0.2,0.3,0.4,0.3,0.6,0.1c0.2-0.2,0.3-0.5,0.7-0.3C106.3,11.6,106,11.9,106,12.2z"/>
<path class="st0" d="M116.9,26c0,0.3,0.1,0.6-0.1,0.6c-0.3,0.1-0.2-0.3-0.3-0.4c-0.1-0.2-0.3-0.4-0.4-0.6c-0.1-0.2-0.1-0.4,0.1-0.6
	c0.2-0.2,0.4,0,0.5,0.2C116.8,25.5,116.9,25.8,116.9,26z"/>
<path class="st0" d="M66.6,24.1C66.6,24.1,66.5,24.1,66.6,24.1c-0.2-0.3-0.9,0.1-0.7-0.4c0.1-0.4,0.6,0,0.8,0
	C66.7,23.8,66.7,24,66.6,24.1z"/>
<path class="st0" d="M72.5,34.9c0.2-0.1,0.5-0.2,0.7,0.1c-0.1,0-0.3-0.1-0.3,0.2c0,0.1,0.1,0.5-0.2,0.4c-0.3-0.1-0.2-0.3-0.1-0.5
	C72.6,35,72.5,35,72.5,34.9z"/>
<path class="st0" d="M139.4,14.6L139.4,14.6l-0.1,0c-0.2-0.2-0.2-0.3,0-0.5c0,0,0.1-0.1,0.1-0.1C139.6,14.2,139.4,14.4,139.4,14.6z"
	/>
<path class="st0" d="M75.5,38c0,0,0,0.1,0,0.1c0,0.2,0.1,0.3-0.1,0.4c0,0-0.1-0.1-0.1-0.1C75.3,38.3,75.2,38,75.5,38
	C75.6,38,75.5,38,75.5,38z"/>
<path class="st0" d="M129,35c0,0.1,0.3,0.3,0,0.4c-0.2,0.1-0.2-0.3-0.3-0.4C128.8,35,128.8,35,129,35C128.9,35,129,35,129,35z"/>
<path class="st0" d="M72.3,23.2c0.2,0.1,0.3,0.2,0.1,0.3c-0.1,0.1-0.2,0-0.2-0.1C72.3,23.3,72.3,23.2,72.3,23.2z"/>
<path class="st0" d="M39.8,10.9c0,0,0,0.2-0.1,0.1c-0.1,0-0.1-0.1-0.1-0.2c0-0.1,0.1-0.1,0.2-0.1C39.8,10.7,39.8,10.8,39.8,10.9z"/>
<path class="st0" d="M129,35C129,35,128.9,35,129,35c-0.1-0.1-0.2-0.2-0.3-0.4C129.3,34.4,128.9,34.9,129,35z"/>
<path class="st0" d="M44.4,38.9c-0.1,0-0.2-0.1-0.2-0.2c0-0.1,0.1-0.1,0.2-0.2c0.1,0.1,0.1,0.1,0.1,0.2
	C44.5,38.8,44.4,38.9,44.4,38.9z"/>
<path class="st0" d="M129.2,33.7c0.2,0,0.2,0.1,0.2,0.2c0,0.1,0,0.2-0.1,0.1c-0.1,0-0.1-0.1-0.1-0.2
	C129.1,33.7,129.2,33.7,129.2,33.7z"/>
<path class="st0" d="M67.5,31.7c-0.3-0.4-0.4-0.8-0.8-1.1c-0.2-0.2,0.1-0.5,0.1-0.7c0-0.1,0.1-0.2,0.3-0.1c0.2,0.1,0.2,0.3,0.3,0.5
	c0.1,0.3,0.3,0.5,0.3,0.8C67.7,31.2,67.7,31.5,67.5,31.7z"/>
<path class="st0" d="M171.8,28.6c-0.4-0.2-0.4-0.4-0.1-0.7c0.2-0.2,0.2-0.4-0.1-0.6c-0.2-0.1-0.3-0.3-0.3-0.5
	c-0.2-0.5-0.4-0.7-1-0.2c0-0.9,0-0.9,0.7-1.1c0.1,0,0.2,0,0.2-0.1c0-0.1-0.6-1.3-0.7-1.3c-0.5,0-0.9-0.2-1.3-0.4
	c-0.6-0.2-1.2-0.7-1.8-0.7c-0.4,0-0.9-0.4-1.2-0.2c-0.7,0.3-1.2-0.2-1.8-0.1c-0.1,0-0.3-0.1-0.3-0.2c-0.1-0.2,0.1-0.3,0.2-0.4
	c0.1,0,0.3,0,0.4-0.1c0.3-0.1,0.4-0.4,0.4-0.7c0-0.3-0.3-0.6-0.4-0.6c-0.7,0.4-1,0-1.6-0.2c-0.6-0.2-1.4-0.2-2-0.1
	c-0.3,0.1-0.5,0.4-0.9,0.4c-0.7,0-1.4,0.2-2.1,0c-0.3-0.1-0.5,0-0.7,0.3c-0.3,0.5-0.7,0.6-1.3,0.5c-0.6-0.1-1,0.2-1.2,0.8
	c-0.1,0.2-0.1,0.4-0.3,0.3c-0.5-0.1-0.7,0.2-0.8,0.6c-0.3,0.6-0.1,1.4-0.7,1.9c0,0,0.1,0.2,0.1,0.4c0.1,0.4,0.2,0.9-0.1,1.3
	c-0.3,0.4-0.2,0.6,0,0.9c0.3,0.3,0.3,0.6-0.1,0.9c-0.3,0.2-0.3,0.6-0.3,0.9c0.1,0.5,0.3,0.9,0.2,1.4c0,0.3,0.2,0.6,0.5,0.6
	c0.7,0,0.5,0.4,0.5,0.7c0,0.4-0.7,1,0.3,1.2c0,0,0,0,0,0.1c-0.1,0.9,0.9,1.4,0.8,2.3c0,0.1,0.1,0.2,0.1,0.2c0.7,0.2,1,0.8,1.3,1.4
	c0.1,0.1,0.3,0.2,0.5,0.3c0.7,0.4,1.5,0.7,2.2,1.1c0.3,0.1,0.5,0.4,0.4,0.7c-0.2,0.4,0.1,0.6,0.4,0.6c0.4,0,0.6,0.3,0.7,0.7
	c0,0.4,0.2,0.4,0.5,0.4c0.3,0,0.7-0.1,1,0.1c0.5,0.3,0.9,0.2,1.1-0.3c0.3-0.6,1.6-1,2-0.6c0.5,0.5,1,0.1,1.4,0
	c0.5-0.1,0.6-0.8,1-1.1c0.1-0.1,0-0.2-0.1-0.2c-0.5-0.5-0.1-0.8,0.4-0.9c0.4-0.2,0.9-0.3,1-0.8c0.1-0.6,0.2-0.9,0.8-0.5
	c0.1,0.1,0.2,0,0.3-0.1c0.7-1,1.6-1.9,1.3-3.2c-0.1-0.2,0.1-0.3,0.2-0.4c0.3-0.3,0.8-0.7,0.6-1.2c-0.2-0.9,0.2-1.6,0.3-2.5
	C172.3,29.3,172.3,28.9,171.8,28.6z M167.6,30.9c-0.6-0.1-0.8,0.4-1.3,0.7c-0.2,0.1-0.4,0-0.6,0c0,0.1-0.1,0.2-0.2,0.2
	c-0.3,0.6,0.4,1,0.5,1.5c0.1,0.6-0.1,0.7-0.4,1c-0.2-0.1-0.1-0.2-0.1-0.2c0.1-0.5-0.2-0.8-0.6-0.9c-0.4-0.1-0.4,0.4-0.5,0.7
	c-0.1,0.5,0,0.9,0.2,1.4c0,0.1,0.1,0.3,0,0.4c-0.1,0.1-0.2,0-0.3-0.1c-0.5-0.4-0.7-0.3-0.8,0.3c-0.1,0.5-0.9,0.9-1.4,0.8
	c-0.3-0.1-0.5-0.1-0.6,0.3c0,0.2-0.2,0.4-0.5,0.5c0.7-1-0.5-1.8-0.3-2.8c0.1-0.3-0.4-0.7-0.6-1.1c-1-1.4-1.1-3-1.4-4.5
	c-0.1-0.9,0-1.9,0.1-2.9c0-0.1,0.1-0.2,0.2-0.3c0.3-0.4,0.6-0.9,0.7-1.4c0.1-0.5,0.5-0.9,1.1-0.7c0.1,0,0.2,0,0.3,0
	c0.5-0.2,1.1-0.6,1.1,0.5c0,0.1,0.3,0.2,0.4,0.2c0.9,0,1.5,0.7,2.2,1c0.3,0.2,0.2,0.6,0.5,0.8c0.1-0.2,0.2-0.3,0.4-0.2
	c0.2,0,0.1,0.2,0.1,0.3c0.1,0.5-0.2,1.1,0.3,1.5c0,0,0.1,0.1,0,0.2c-0.8,1,0.4,1.4,0.5,2.1c0.1,0.3,0.3,0.7,0.8,0.7
	c0.1,0,0.1,0.1,0.2,0.2C167.7,30.7,167.6,30.9,167.6,30.9z"/>
<path class="st0" d="M48.3,29.7c0.3,0,0.6-0.5,0.4-0.7c-0.3-0.4-0.1-1.1-0.7-1.3c0,0-0.1-0.2-0.1-0.2c0.3-0.5-0.3-1,0.1-1.5
	c0-0.1,0-0.3-0.1-0.4c-0.5-0.9-0.6-1.9-0.6-2.9c0-0.5,0-1.1-0.7-1.3c-0.5-0.1-0.9-0.5-1.3-0.8c-0.3-0.3-0.4-0.4-0.7,0
	c-0.3,0.4-0.6,0.3-0.7-0.2c-0.1-0.4-0.4-0.4-0.8-0.2c-0.1,0-0.1,0.2-0.2,0.1c-0.3-0.4-1-0.5-1.1-1.1c-0.1-0.8-0.9-1.5-1.7-1.7
	c-0.7-0.1-1.3,0-1.8,0.5c-1.1,0.9-2.6,1.1-3.8,2c-1,0.8-1.9,1.6-2.4,2.7c-0.1,0.3-0.5,0.7-0.5,0.9c-0.1,0.5-1,0.8-0.4,1.5
	c0.1,0.1-0.1,0.2-0.1,0.2c-0.4,0.1-0.3,0.4-0.3,0.7c0,0.2,0.1,0.6,0,0.7c-0.7,0.6-0.5,1.5-0.9,2.2c-0.2,0.4-0.3,0.9,0.1,1.3
	c0.1,0.1,0.2,0.3,0.1,0.4c-0.3,0.7,0.1,1.4,0.4,2c0.2,0.4,0.3,0.7,0.3,1.1c-0.1,0.7,0,1.4,0.4,2c0.3,0.3,0.4,0.7,0.4,1.1
	c0,0.2,0.1,0.4,0.3,0.5c0.4,0.1,0.4,0.3,0.3,0.6c-0.1,0.4-0.1,0.8,0.5,0.5c0.1-0.1,0.2-0.1,0.3,0c0.1,0.1,0,0.2,0,0.3
	c-0.2,0.4,0,0.6,0.3,0.8c0.6,0.5,1.3,0.3,1.9,0.3c0.1,0.2-0.3,0.6,0.1,0.7c0.7,0.2,0.8-0.5,1.1-0.9c0.4,0.3,0.8,0.6,1.2,0.8
	c0.4,0.3,0.6,0.7,1.2,0.5c0,0,0.1,0.1,0.2,0.2c0.4,0.5,0.8,0.5,1.1,0c0.4-0.5,0.7-0.5,1.1-0.1c0.2,0.2,0.3,0.2,0.5-0.1
	c0.4-0.6,0.6-1.3,1.4-1.7c0.3-0.1,0.4-0.3,0.2-0.7c-0.1-0.3-0.1-0.6,0.2-0.8c0.7-0.5,1.3-1,1.7-1.8c0.1-0.1,0.1-0.3,0.3-0.2
	c0.4,0.1,0.4-0.1,0.4-0.4c0-0.2,0.1-0.4,0.1-0.6c0-0.4,0.4-0.7,0.3-1c-0.3-0.8,0.2-0.9,0.7-1c0.4-0.1,0.6-0.3,0.6-0.6
	c0-0.6,0.2-1.2,0.5-1.8c0.1-0.2,0.3-0.5,0-0.6c-0.4-0.1-0.3,0.3-0.4,0.5C47.6,29.7,47.6,29.7,48.3,29.7z M43.5,30
	c-0.1,0.5-0.1,0.9-0.1,1.4c0,0.7-0.5,1.2-0.8,1.7C42,34,41.8,35,41.2,35.9c-0.4,0.6-0.9,1.1-1.6,1.3c-0.1,0-0.2,0.1-0.3,0.1
	c-0.5-0.3-1.2-0.2-1.7-0.4c-0.8-0.4-1.7-0.9-2.1-1.8c-0.1-0.2-0.2-0.3-0.3-0.5c-0.3-0.3-0.6-0.7-0.4-1.1c0-0.1,0-0.2,0-0.3
	c-0.6-1.1-0.3-2.2-0.2-3.3c0.1-0.7-0.2-1.3-0.1-2c0,0,0,0,0-0.1c-0.1-0.4,0-0.8,0.2-1.2c0.2-0.5,0.7,0.2,1-0.1
	c0.1-0.1,0.4,0.1,0.5-0.1c0.1-0.3-0.2-0.3-0.3-0.5c-0.4-0.6-0.2-1.1,0.6-1.3c0.3-0.1,0.4-0.1,0.4-0.4c0-0.1,0-0.3,0.1-0.3
	c0.8-0.1,0.8-0.8,1.1-1.3c0.1-0.2,0.3-0.4,0.7-0.3c0.6,0.4,1.3,0,2.1-0.1c0.1,0,0.2,0,0.2,0c0.4,0.4,0.9,0.7,1,1.1
	c0.2,0.7,0.7,1.1,1.1,1.5c0.5,0.4,1,0.8,0.7,1.5c0,0.1,0,0.1,0,0.2C44.3,27.7,43.7,28.8,43.5,30z"/>
</svg>
